<svg id="Layer_1" data-name="Layer 1" xmlns="http://www.w3.org/2000/svg" viewBox="0 0 761.39 140.34"><circle cx="82.35" cy="81.87" r="35.59"/><path d="M140.71,58.27a58.53,58.53,0,1,0-.25,82.77A58.52,58.52,0,0,0,140.71,58.27ZM128,128.46a40.79,40.79,0,1,1,.17-57.69A40.79,40.79,0,0,1,128,128.46Z" transform="translate(-17.2 -17.72)"/><path d="M254.9,141.28c-.77,0-2.3,0-3.83-.13-16.22-.77-20.94-4.21-24.78-9.58-5.1-7-8.81-14.81-13.15-22.47-1.91-3.45-3.7-4.22-7.79-4.22l-2.55-.12V123.4c0,10.34,1.27,11.24,10.85,12.39v4.72H174.58v-4.72c9.7-1,10.85-2,10.85-12.39V74.49c0-10.09-1.28-11.49-10.85-12.26V57.51h37c11.36,0,17.88,1.27,23.11,4.85s8.56,9.07,8.56,17c0,11.37-7.54,17.37-16,20.69,1.91,3.83,6.89,12.13,10.72,18a103.07,103.07,0,0,0,9.71,13.28c2.94,3.32,4.34,4.34,8,5.62ZM206.25,99.52c5.49,0,9.7-.89,12.51-3.32,4.21-3.58,6-8.43,6-14.94,0-13.54-7.79-18.39-14.94-18.39-3.45,0-5.11.51-5.87,1.28s-1.15,2.3-1.15,4.85V99.52Z" transform="translate(-17.2 -17.72)"/><path d="M330.37,118.8c-.64,3.45-4.21,18.14-5.36,21.71H258.73v-4.6c11.62-1.14,12.39-1.78,12.39-12.51V74.62c0-10.86-1.54-11.62-10.22-12.39V57.51h41.5c13.41,0,17.88-.13,19.67-.26.13,2.3.77,12.77,1.28,20.69l-5,.64c-1.15-4.35-3.32-9.58-5.5-11.88-2.29-2.55-3.95-3.32-10.47-3.32h-8.3c-4.85,0-5.36.26-5.36,4.6V94.67h12.51c7.16,0,8.43-1.92,10.35-11h5v28.47h-5c-2.05-9.45-3.07-11-10.47-11H288.74v22c0,8.82.25,11.5,8.17,11.63H306c7.15,0,9.07-.9,11.87-4.35a56.38,56.38,0,0,0,7.79-12.77Z" transform="translate(-17.2 -17.72)"/><path d="M418.61,118.55a182.43,182.43,0,0,1-7.15,20.56c-3.32.76-13.79,3.32-23.5,3.32-34.35,0-48.53-22.1-48.53-42.4,0-26.43,20.18-44.31,50.83-44.31,11.11,0,20.94,2.68,24.14,3.06.63,6,1.53,15.45,2.42,21.07l-5.11.9c-2.68-10-6.51-14.69-13.28-17.37a32.08,32.08,0,0,0-11.11-1.79c-18.51,0-27.84,15.45-27.84,35.5,0,23.37,12,39.21,29.5,39.21,10.73,0,17.88-5.62,24.78-19.67Z" transform="translate(-17.2 -17.72)"/><path d="M499.57,118.8c-.64,3.45-4.21,18.14-5.36,21.71H427.93v-4.6c11.62-1.14,12.39-1.78,12.39-12.51V74.62c0-10.86-1.53-11.62-10.22-12.39V57.51h41.5c13.41,0,17.88-.13,19.67-.26.13,2.3.77,12.77,1.28,20.69l-5,.64c-1.15-4.35-3.32-9.58-5.49-11.88-2.3-2.55-4-3.32-10.48-3.32h-8.3c-4.85,0-5.36.26-5.36,4.6V94.67h12.51c7.16,0,8.43-1.92,10.35-11h5v28.47h-5c-2.05-9.45-3.07-11-10.47-11H457.94v22c0,8.82.26,11.5,8.17,11.63h9.07c7.15,0,9.07-.9,11.88-4.35a57.11,57.11,0,0,0,7.79-12.77Z" transform="translate(-17.2 -17.72)"/><path d="M543.37,57.51c10.09,0,17.75,1.78,23,5.23,6.38,4.22,10,10.35,10,19.16,0,18.51-15.71,26.3-29.37,26.43a33.67,33.67,0,0,1-3.83-.25l-7.41-1.92v17.37c0,10.72.89,11.24,12,12.26v4.72H507.1v-4.72c9.58-1.15,10.86-1.54,10.86-12.26V74.75c0-10.73-1.28-11.88-10.86-12.52V57.51Zm-7.66,43.29a16.48,16.48,0,0,0,6.77,1.27c5.87,0,15.45-3.44,15.45-20.3,0-14.3-7.79-19-16.09-19-2.68,0-4.21.64-5,1.28s-1.15,2-1.15,4Z" transform="translate(-17.2 -17.72)"/><path d="M659.19,79.6a39.2,39.2,0,0,0-5.49-12.52c-2.3-2.68-3.32-3.7-10.85-3.7h-8.17v60c0,10.73,1.27,11.49,12.64,12.39v4.72h-42.4v-4.72c10.86-.9,12-1.66,12-12.39v-60h-7.79c-7.16,0-9.2,1.15-11.63,4.21-1.78,2.43-3.57,7-5.23,12.14h-4.85c.89-9.33,1.78-19.29,2-25.42h3.83c1.92,2.94,3.45,3.2,7.28,3.2h51.08c3.45,0,5.24-.77,7.41-3.2h3.7c.13,5.37.64,16.6,1.28,24.91Z" transform="translate(-17.2 -17.72)"/><path d="M673,140.51v-4.72c9.71-.9,10.86-1.66,10.86-12.39V74.75C683.84,64,682.56,63,673,62.23V57.51h39.46v4.72c-9.57.9-10.85,1.79-10.85,12.52V123.4c0,10.6,1.15,11.37,10.85,12.39v4.72Z" transform="translate(-17.2 -17.72)"/><path d="M770.42,78.58c-2.55-8.18-6.13-17.5-17.88-17.5-7.41,0-12.26,5.24-12.26,12.39s4.73,11.24,16,16.86c13.67,6.76,22.35,13.4,22.35,26.05,0,15.06-12.51,26.05-30.77,26.05-8.18,0-15.46-2.17-21.46-4-.76-2.94-2.94-16.22-3.83-22.22l5-1.15c2.56,8,9.71,22,22.22,22,7.79,0,12.52-4.85,12.52-13,0-7.41-4.6-11.75-15.33-17.5C733.64,99.39,725,93,725,79.73s10.47-24,29.62-24c8.82,0,15.46,1.91,18.27,2.3.51,4.72,1.4,11.36,2.42,19.41Z" transform="translate(-17.2 -17.72)"/><rect x="14.72" y="40.71" width="57.82" height="7.09" rx="3.55" transform="translate(27.06 -35.61) rotate(45.17)" style="stroke:#000;stroke-miterlimit:10;stroke-width:10px"/></svg>