<svg data-name="Layer 1" xmlns="http://www.w3.org/2000/svg" viewBox="0 0 745.12 140.34"><g class="pan" fill="#fff"><circle cx="82.35" cy="81.87" r="35.59"/><path d="M123.51 40.55a58.53 58.53 0 1 0-.25 82.77 58.52 58.52 0 0 0 .25-82.77Zm-12.71 70.19a40.79 40.79 0 1 1 .17-57.69 40.79 40.79 0 0 1-.17 57.69Z"/><rect x="14.72" y="40.71" width="57.82" height="7.09" rx="3.55" transform="rotate(45.17 56.34 14.72)" stroke="#fff" stroke-miterlimit="10" stroke-width="10"/></g><g class="letters"><path class="letter" d="M151.61 40.21h45a32.79 32.79 0 0 1 11.73 2 26.46 26.46 0 0 1 8.7 5.25 22.69 22.69 0 0 1 7.3 16.7 27.6 27.6 0 0 1-.93 7.57 19.5 19.5 0 0 1-2.69 5.79 19.76 19.76 0 0 1-4.35 4.46 34.83 34.83 0 0 1-5.9 3.51 14.24 14.24 0 0 1 5 4.46 21.42 21.42 0 0 1 3.32 7.77l2.86 11.06h7l.15 16.5h-24.7l-3.3-20.19a26.74 26.74 0 0 0-1.54-6.2 11.85 11.85 0 0 0-2.78-4.27 10.7 10.7 0 0 0-4.23-2.44 20 20 0 0 0-5.93-.79h-7.24v18.53h7.81v15.36h-35.28v-15.36h8.81V55.64h-8.81Zm27.44 15.43v20.64h11.17a25.9 25.9 0 0 0 5.76-.59 12.49 12.49 0 0 0 4.37-1.85 8.62 8.62 0 0 0 2.81-3.17 9.89 9.89 0 0 0 1-4.55 9.21 9.21 0 0 0-3.53-7.69q-3.54-2.74-10.39-2.75Z" fill="#fff"/><path class="letter" d="M237.48 40.21h67.69v29.07h-18.3V57.16h-21.83v16.78h16.89v16.28h-16.89v19.7h21.83v-15.1h18.3v30.46h-67.69v-15.36h8.92V57.16h-8.92Z" fill="#fff"/><path class="letter" d="M370.66 66.08a28.1 28.1 0 0 0-5.67-6.37 16.47 16.47 0 0 0-5.44-2.69 22.83 22.83 0 0 0-6.12-.82 18.69 18.69 0 0 0-8.75 2.08 22 22 0 0 0-7 5.72 27.66 27.66 0 0 0-4.63 8.42 30.64 30.64 0 0 0-1.68 10.19 31.27 31.27 0 0 0 1.65 10.24 27.24 27.24 0 0 0 4.58 8.43 21.94 21.94 0 0 0 7 5.7 19 19 0 0 0 8.87 2.1 17.77 17.77 0 0 0 6.29-1.09 21 21 0 0 0 5.3-2.89 21.81 21.81 0 0 0 4.18-4.13 20.09 20.09 0 0 0 2.81-4.85l18.07 5a35.82 35.82 0 0 1-13.22 18.3 39.11 39.11 0 0 1-10.66 5.38 40.3 40.3 0 0 1-12.77 2 38.73 38.73 0 0 1-11.09-1.52 39.84 39.84 0 0 1-9.85-4.44 40.46 40.46 0 0 1-8.31-6.9 43.38 43.38 0 0 1-6.37-9 47 47 0 0 1-5.56-22.31 45.8 45.8 0 0 1 3.2-17.15 44.46 44.46 0 0 1 8.76-14 40.94 40.94 0 0 1 13.05-9.43 38.08 38.08 0 0 1 16.13-3.45 34.33 34.33 0 0 1 11.62 1.71 33.57 33.57 0 0 1 10.38 6.76h12.58v19Z" fill="#fff"/><path class="letter" d="M402.15 40.21h67.65v29.07h-18.26V57.16h-21.83v16.78h16.89v16.28h-16.89v19.7h21.83v-15.1h18.26v30.46h-67.65v-15.36h8.92V57.16h-8.92Z" fill="#fff"/><path class="letter" d="M479.6 40.21h39.29a34.19 34.19 0 0 1 12.06 2 30.29 30.29 0 0 1 9.49 5.53 25.83 25.83 0 0 1 6.23 8 21.24 21.24 0 0 1 2.24 9.54 34.32 34.32 0 0 1-1.77 11.14 23.68 23.68 0 0 1-5.47 9 26.13 26.13 0 0 1-9.37 6 36.72 36.72 0 0 1-13.41 2.22h-11.85v16.22h7.76v15.42h-35.2v-15.36h8.81V55.64h-8.81Zm27.44 15.43v22.85h7.69q6.41 0 10.16-2.7t3.76-8.51a10.75 10.75 0 0 0-3.53-8.53q-3.54-3.09-10.39-3.09Z" fill="#fff"/><path class="letter" d="M572.8 109.92h8.82V55.08h-10.37v11h-18.3V40.21h77.4v25.87h-18.41v-11h-11.73v54.84h9v15.36H572.8Z" fill="#fff"/><path class="letter" d="M638.43 40.21h36.42v15.38h-9v54.33h9v15.36h-36.42v-15.36h8.81V55.59h-8.81Z" fill="#fff"/><path class="letter" d="M724.8 64.17a9.41 9.41 0 0 0-1.38-3.7 11 11 0 0 0-2.81-3 14.06 14.06 0 0 0-8.39-2.72 17.33 17.33 0 0 0-4 .44 9.86 9.86 0 0 0-3.23 1.38 6.94 6.94 0 0 0-2.19 2.38 7.1 7.1 0 0 0-.81 3.48 6.63 6.63 0 0 0 1.09 4 8.76 8.76 0 0 0 2.81 2.44 16.21 16.21 0 0 0 3.79 1.51c1.38.38 2.73.79 4 1.24l15.43 5.16a24.61 24.61 0 0 1 6 3.09 20.52 20.52 0 0 1 4.85 4.77 22.68 22.68 0 0 1 3.23 6.45 26.53 26.53 0 0 1 1.18 8.2 27.55 27.55 0 0 1-2.27 11.28 25.5 25.5 0 0 1-6.37 8.75 29 29 0 0 1-9.83 5.67 40.3 40.3 0 0 1-21.91.93 30.87 30.87 0 0 1-7.94-3.17 27.07 27.07 0 0 1-6.29-5 21.74 21.74 0 0 1-4.21-6.54h-5.78V94.37h20.32v3.48a13 13 0 0 0 .81 4.66 10.13 10.13 0 0 0 2.44 3.7 11.11 11.11 0 0 0 4.1 2.44 17.4 17.4 0 0 0 5.78.87c3.37 0 5.93-.77 7.69-2.33a8.18 8.18 0 0 0 2.64-6.48 6.39 6.39 0 0 0-.93-3.56 8.44 8.44 0 0 0-2.38-2.42 16.06 16.06 0 0 0-3.26-1.65c-1.2-.45-2.38-.86-3.54-1.24l-12.85-4.15a32.68 32.68 0 0 1-7-3.14 24.22 24.22 0 0 1-6-5 23.62 23.62 0 0 1-4.15-7.1 26.08 26.08 0 0 1-1.54-9.29 25.11 25.11 0 0 1 2.27-10.88 22.45 22.45 0 0 1 6.29-8 28 28 0 0 1 9.59-4.94 41.65 41.65 0 0 1 12.18-1.69 36.93 36.93 0 0 1 9.66 1.21 33.65 33.65 0 0 1 7.91 3.26 25.32 25.32 0 0 1 6 4.63 20.44 20.44 0 0 1 3.73 5.41h5.61v17H724.8Z" fill="#fff"/></g></svg>